<?xml version="1.0" encoding="UTF-8" standalone="no"?>
<!-- Created with Inkscape (http://www.inkscape.org/) -->
<svg
   xmlns:dc="http://purl.org/dc/elements/1.1/"
   xmlns:cc="http://creativecommons.org/ns#"
   xmlns:rdf="http://www.w3.org/1999/02/22-rdf-syntax-ns#"
   xmlns:svg="http://www.w3.org/2000/svg"
   xmlns="http://www.w3.org/2000/svg"
   xmlns:xlink="http://www.w3.org/1999/xlink"
   xmlns:sodipodi="http://sodipodi.sourceforge.net/DTD/sodipodi-0.dtd"
   xmlns:inkscape="http://www.inkscape.org/namespaces/inkscape"
   id="svg2627"
   sodipodi:version="0.32"
   inkscape:version="0.46"
   width="379"
   height="306"
   version="1.0"
   sodipodi:docname="latexila_agave2.svg"
   inkscape:output_extension="org.inkscape.output.svg.inkscape">
  <metadata
     id="metadata2632">
    <rdf:RDF>
      <cc:Work
         rdf:about="">
        <dc:format>image/svg+xml</dc:format>
        <dc:type
           rdf:resource="http://purl.org/dc/dcmitype/StillImage" />
        <dc:contributor>
          <cc:Agent>
            <dc:title>- verre et citron tiré de http://www.clker.com/clipart-3917.html
- http://latexila.sourceforge.net/</dc:title>
          </cc:Agent>
        </dc:contributor>
        <dc:creator>
          <cc:Agent>
            <dc:title>Eric Forgeot</dc:title>
          </cc:Agent>
        </dc:creator>
        <dc:rights>
          <cc:Agent>
            <dc:title>libre de droit (licence BSD par exemple ?)</dc:title>
          </cc:Agent>
        </dc:rights>
        <dc:title>Logo pour LaTeXila </dc:title>
      </cc:Work>
    </rdf:RDF>
  </metadata>
  <defs
     id="defs2630">
    <linearGradient
       id="linearGradient3766">
      <stop
         style="stop-color:#00b9bb;stop-opacity:1;"
         offset="0"
         id="stop3768" />
      <stop
         id="stop3774"
         offset="1"
         style="stop-color:#005c5d;stop-opacity:1;" />
    </linearGradient>
    <inkscape:perspective
       sodipodi:type="inkscape:persp3d"
       inkscape:vp_x="0 : 526.18109 : 1"
       inkscape:vp_y="0 : 1000 : 0"
       inkscape:vp_z="744.09448 : 526.18109 : 1"
       inkscape:persp3d-origin="372.04724 : 350.78739 : 1"
       id="perspective2634" />
    <filter
       inkscape:collect="always"
       id="filter3587">
      <feGaussianBlur
         inkscape:collect="always"
         stdDeviation="0.73224137"
         id="feGaussianBlur3589" />
    </filter>
    <filter
       inkscape:collect="always"
       id="filter3724">
      <feGaussianBlur
         inkscape:collect="always"
         stdDeviation="1.4174847"
         id="feGaussianBlur3726" />
    </filter>
    <linearGradient
       inkscape:collect="always"
       xlink:href="#linearGradient3766"
       id="linearGradient3772"
       x1="-230.76978"
       y1="256.33911"
       x2="-238.3432"
       y2="286.75864"
       gradientUnits="userSpaceOnUse" />
    <linearGradient
       inkscape:collect="always"
       xlink:href="#linearGradient3766"
       id="linearGradient3810"
       x1="-190.18245"
       y1="241.58115"
       x2="-178.38271"
       y2="279.35947"
       gradientUnits="userSpaceOnUse" />
    <linearGradient
       inkscape:collect="always"
       xlink:href="#linearGradient3766"
       id="linearGradient3824"
       x1="-151.74741"
       y1="249.73038"
       x2="-178.75063"
       y2="294.1355"
       gradientUnits="userSpaceOnUse" />
    <linearGradient
       inkscape:collect="always"
       xlink:href="#linearGradient3766"
       id="linearGradient3826"
       x1="-264.47421"
       y1="229.53055"
       x2="-239.05301"
       y2="259.83783"
       gradientUnits="userSpaceOnUse" />
    <linearGradient
       inkscape:collect="always"
       xlink:href="#linearGradient3766"
       id="linearGradient3834"
       x1="-248.75945"
       y1="274.11307"
       x2="-252.82423"
       y2="305.49371"
       gradientUnits="userSpaceOnUse" />
    <radialGradient
       inkscape:collect="always"
       xlink:href="#linearGradient3766"
       id="radialGradient3843"
       gradientUnits="userSpaceOnUse"
       gradientTransform="matrix(1.9088158,-0.6550715,0.5561212,1.6204847,-201.33514,-53.954023)"
       cx="104.84739"
       cy="202.1579"
       fx="104.84739"
       fy="202.1579"
       r="12.30749" />
    <linearGradient
       inkscape:collect="always"
       xlink:href="#linearGradient3766"
       id="linearGradient3851"
       x1="-166.28369"
       y1="158.95882"
       x2="-179.6729"
       y2="111.45541"
       gradientUnits="userSpaceOnUse" />
    <linearGradient
       inkscape:collect="always"
       xlink:href="#linearGradient3766"
       id="linearGradient3859"
       x1="-231.16214"
       y1="135.37292"
       x2="-250.2467"
       y2="182.4205"
       gradientUnits="userSpaceOnUse" />
    <linearGradient
       inkscape:collect="always"
       xlink:href="#linearGradient3766"
       id="linearGradient3867"
       x1="-129.80476"
       y1="308.0112"
       x2="-82.68837"
       y2="360.24185"
       gradientUnits="userSpaceOnUse" />
    <linearGradient
       inkscape:collect="always"
       xlink:href="#linearGradient3766"
       id="linearGradient3869"
       x1="-185.52933"
       y1="325.37543"
       x2="-177.42021"
       y2="303.04327"
       gradientUnits="userSpaceOnUse" />
    <linearGradient
       inkscape:collect="always"
       xlink:href="#linearGradient3766"
       id="linearGradient3877"
       x1="-179.38379"
       y1="276.79083"
       x2="-199.11816"
       y2="307.11392"
       gradientUnits="userSpaceOnUse" />
  </defs>
  <sodipodi:namedview
     inkscape:window-height="720"
     inkscape:window-width="968"
     inkscape:pageshadow="2"
     inkscape:pageopacity="0.0"
     guidetolerance="10.0"
     gridtolerance="10.0"
     objecttolerance="10.0"
     borderopacity="1.0"
     bordercolor="#666666"
     pagecolor="#ffffff"
     id="base"
     showgrid="false"
     inkscape:zoom="1.4591029"
     inkscape:cx="93.246787"
     inkscape:cy="151.61866"
     inkscape:window-x="289"
     inkscape:window-y="194"
     inkscape:current-layer="svg2627" />
  <g
     id="g3892">
    <g
       transform="translate(8,0)"
       id="g3728">
      <g
         inkscape:export-ydpi="138.25844"
         inkscape:export-xdpi="138.25844"
         inkscape:export-filename="/home/eric/_mesdocs/mes_images_vectorielles/latexila_agave/latexila_logo_proposition.png"
         transform="matrix(0.5580658,2.0371876e-2,-2.0371876e-2,0.5580658,214.78564,0.10928)"
         id="g3682"
         style="fill:#000000;fill-opacity:1;stroke:#000000;stroke-opacity:1;filter:url(#filter3724)">
        <path
           style="opacity:1;fill:#000000;fill-opacity:1;fill-rule:evenodd;stroke:#000000;stroke-width:3.0999999;stroke-linecap:round;stroke-linejoin:round;marker:none;marker-start:none;marker-mid:none;marker-end:none;stroke-miterlimit:4;stroke-dasharray:none;stroke-dashoffset:0;stroke-opacity:1;visibility:visible;display:inline;overflow:visible;enable-background:accumulate"
           d="M -195.23459,349.99171 C -195.23459,349.99171 -195.08417,301.95366 -187.51937,274.88297 C -179.95456,247.81226 -159.74909,218.28779 -150.42143,212.16674 C -141.09376,206.04569 -115.96307,196.15098 -108.80564,193.01515 C -101.64823,189.87932 -113.96997,196.65589 -122.30551,204.44228 C -130.64106,212.22868 -134.21967,240.3092 -138.56901,249.10541 C -142.91836,257.90162 -182.40795,341.22204 -185.41971,347.52909 C -188.43148,353.83615 -195.89896,349.82341 -195.23459,349.99171 z"
           id="path3684" />
        <path
           style="opacity:1;fill:#000000;fill-opacity:1;fill-rule:evenodd;stroke:#000000;stroke-width:3.0999999;stroke-linecap:round;stroke-linejoin:round;marker:none;marker-start:none;marker-mid:none;marker-end:none;stroke-miterlimit:4;stroke-dasharray:none;stroke-dashoffset:0;stroke-opacity:1;visibility:visible;display:inline;overflow:visible;enable-background:accumulate"
           d="M -210.32399,152.37626 L -203.53934,226.52273 C -203.53934,226.52273 -196.7547,325.3847 -202.57011,346.70787 C -208.38552,368.03104 -192.87776,381.60033 -192.87776,381.60033 L -170.58536,289.52301 C -170.58536,289.52301 -171.55459,240.09202 -177.37,217.79962 C -179.99498,207.73721 -188.31959,197.23444 -195.24663,186.08035 C -203.66586,172.52352 -204.89896,161.58399 -210.32399,152.37626 z"
           id="path3686"
           sodipodi:nodetypes="ccsccssc" />
        <path
           style="opacity:1;fill:#000000;fill-opacity:1;fill-rule:evenodd;stroke:#000000;stroke-width:3.0999999;stroke-linecap:round;stroke-linejoin:round;marker:none;marker-start:none;marker-mid:none;marker-end:none;stroke-miterlimit:4;stroke-dasharray:none;stroke-dashoffset:0;stroke-opacity:1;visibility:visible;display:inline;overflow:visible;enable-background:accumulate"
           d="M -297.02053,196.43933 C -297.02053,196.43933 -268.26624,219.47513 -268.83036,229.15105 C -269.39448,238.82697 -255.82416,285.83207 -251.49305,296.47301 C -247.16194,307.11395 -231.89925,325.09128 -231.89925,325.09128 L -201.68169,316.36751 L -212.1551,314.49475 C -212.1551,314.49475 -214.38866,287.85947 -219.74635,273.17807 C -225.10403,258.49668 -246.97578,227.31839 -260.98281,216.11333 C -274.98984,204.90828 -295.59734,197.00775 -297.02053,196.43933 z"
           id="path3688" />
        <path
           style="opacity:1;fill:#000000;fill-opacity:1;fill-rule:evenodd;stroke:#000000;stroke-width:3.0999999;stroke-linecap:round;stroke-linejoin:round;marker:none;marker-start:none;marker-mid:none;marker-end:none;stroke-miterlimit:4;stroke-dasharray:none;stroke-dashoffset:0;stroke-opacity:1;visibility:visible;display:inline;overflow:visible;enable-background:accumulate"
           d="M -224.86251,377.72339 C -224.86251,377.72339 -251.03186,299.21536 -251.03186,252.69208 C -251.03186,206.1688 -223.89328,134.44541 -223.89328,134.44541 C -223.89328,134.44541 -226.80098,176.12251 -226.80098,196.47645 C -226.80098,216.83038 -207.41628,324.41546 -207.41628,342.83093 C -207.41628,361.24639 -223.89328,378.69262 -224.86251,377.72339 z"
           id="path3690" />
        <path
           sodipodi:nodetypes="cccccccsss"
           id="path3692"
           d="M -164.22435,362.36558 C -157.21342,345.22123 -167.66106,324.79433 -168.69571,306.86591 C -170.02024,295.44452 -167.71749,276.91804 -162.20702,266.27249 C -155.67008,251.59373 -148.06457,237.2233 -139.99562,223.0314 C -159.63975,241.79021 -179.70617,260.48241 -195.80357,281.30391 C -202.79775,289.54939 -208.95671,309.99118 -211.79197,319.27176 C -216.14286,337.50511 -221.93072,343.06869 -232.31147,359.3806 C -236.9327,366.14611 -237.02035,374.99522 -229.76468,380.85704 C -220.37114,388.44607 -207.77334,391.66329 -192.71133,387.27396 C -181.96488,384.14226 -171.97011,381.30681 -164.22435,362.36558 z"
           style="fill:#000000;fill-opacity:1;fill-rule:evenodd;stroke:#000000;stroke-width:2.80220747;stroke-linecap:round;stroke-linejoin:round;stroke-miterlimit:4;stroke-dasharray:none;stroke-opacity:1" />
        <g
           id="g3694"
           transform="matrix(1.1818633,6.9640116e-2,-7.7288888e-2,1.0649021,59.679462,-13.166977)"
           style="fill:#000000;fill-opacity:1;stroke:#000000;stroke-opacity:1">
          <path
             id="path3696"
             d="M -193.89882,377.38769 L -192.52812,382.87051 C -192.52812,382.87051 -183.61853,390.40939 -176.765,384.92657 C -169.91148,379.44375 -164.42866,344.49077 -165.11401,334.21048 C -165.79936,323.93019 -165.79936,310.90849 -161.68725,309.53778 C -157.57513,308.16708 -171.28218,299.94285 -171.28218,299.94285 C -171.28218,299.94285 -189.10135,298.57214 -195.95488,301.99891 C -202.8084,305.42567 -202.12305,330.09836 -200.06699,333.52513 C -198.01094,336.95189 -193.21347,354.77106 -193.21347,359.56853 C -193.21347,364.36599 -193.21347,378.07305 -193.89882,377.38769 z"
             style="opacity:1;fill:#000000;fill-opacity:1;fill-rule:evenodd;stroke:#000000;stroke-width:3.0999999;stroke-linecap:round;stroke-linejoin:round;marker:none;marker-start:none;marker-mid:none;marker-end:none;stroke-miterlimit:4;stroke-dasharray:none;stroke-dashoffset:0;stroke-opacity:1;visibility:visible;display:inline;overflow:visible;enable-background:accumulate" />
          <path
             id="path3698"
             d="M -194.58417,377.38769 C -194.58417,377.38769 -192.52812,367.79276 -195.26953,353.40035 C -198.01094,339.00795 -207.60587,310.90849 -197.32558,302.68426 C -187.04529,294.46003 -145.23878,317.76202 -145.23878,317.76202 C -145.23878,317.76202 -73.276756,376.01699 -67.793936,378.07305 C -62.311116,380.1291 -95.208036,337.63724 -102.74692,325.98625 C -110.2858,314.33525 -119.88074,296.51608 -122.62215,293.08932 C -125.36356,289.66256 -134.27314,283.49438 -145.23878,285.55044 C -156.20443,287.6065 -189.10135,298.57214 -194.58417,301.31355 C -200.06699,304.05496 -200.75235,307.48173 -202.12305,312.96455 C -203.49376,318.44737 -194.58417,351.34429 -194.58417,358.88317 C -194.58417,366.42205 -194.58417,377.38769 -194.58417,377.38769 z"
             style="opacity:1;fill:#000000;fill-opacity:1;fill-rule:evenodd;stroke:#000000;stroke-width:3.0999999;stroke-linecap:round;stroke-linejoin:round;marker:none;marker-start:none;marker-mid:none;marker-end:none;stroke-miterlimit:4;stroke-dasharray:none;stroke-dashoffset:0;stroke-opacity:1;visibility:visible;display:inline;overflow:visible;enable-background:accumulate" />
        </g>
        <path
           style="fill:#000000;fill-opacity:1;fill-rule:evenodd;stroke:#000000;stroke-width:3.0999999;stroke-linecap:round;stroke-linejoin:round;stroke-miterlimit:4;stroke-dasharray:none;stroke-opacity:1"
           d="M -233.12496,375.66236 C -248.7953,359.60252 -250.92246,332.24891 -259.94777,311.79731 C -265.11188,298.47762 -277.4053,278.81781 -288.15377,269.35152 C -302.04064,255.83486 -316.69686,243.12928 -331.66197,230.82546 C -303.98059,243.1636 -275.96454,255.24284 -250.26091,271.4324 C -239.53697,277.57279 -222.78892,297.68339 -215.15089,306.79652 C -201.21769,325.234 -193.04151,328.91003 -174.86731,342.56816 C -167.05158,348.09497 -162.07038,357.92791 -165.2063,367.63865 C -169.26621,380.2107 -178.56843,389.3067 -194.25446,390.99474 C -205.44615,392.19912 -215.81224,393.4054 -233.12496,375.66236 z"
           id="path3700"
           sodipodi:nodetypes="cccccccsss" />
        <g
           id="g3702"
           transform="matrix(1.0968801,0,0,0.9575826,-45.307999,204.49335)"
           style="fill:#000000;fill-opacity:1;stroke:#000000;stroke-opacity:1">
          <path
             id="path3704"
             d="M -146.21029,194.74633 C -146.21029,194.74633 -154.43452,196.11703 -163.34411,188.57815 C -172.25369,181.03927 -181.84863,162.53475 -183.90469,150.88376 C -185.96074,139.23276 -199.6678,115.93078 -199.6678,115.93078 L -194.87033,100.85302 L -172.25369,95.370197 C -172.25369,95.370197 -161.9734,97.426247 -160.6027,104.27978 C -159.23199,111.13331 -159.23199,156.36658 -157.17593,163.22011 C -155.11988,170.07363 -142.78353,185.83674 -143.46888,187.8928 C -144.15423,189.94886 -145.52494,194.74633 -146.21029,194.74633 z"
             style="opacity:1;fill:#000000;fill-opacity:1;fill-rule:evenodd;stroke:#000000;stroke-width:3.0999999;stroke-linecap:round;stroke-linejoin:round;marker:none;marker-start:none;marker-mid:none;marker-end:none;stroke-miterlimit:4;stroke-dasharray:none;stroke-dashoffset:0;stroke-opacity:1;visibility:visible;display:inline;overflow:visible;enable-background:accumulate" />
          <path
             style="opacity:1;fill:#000000;fill-opacity:1;fill-rule:evenodd;stroke:#000000;stroke-width:3.0999999;stroke-linecap:round;stroke-linejoin:round;marker:none;marker-start:none;marker-mid:none;marker-end:none;stroke-miterlimit:4;stroke-dasharray:none;stroke-dashoffset:0;stroke-opacity:1;visibility:visible;display:inline;overflow:visible;enable-background:accumulate"
             d="M -144.28804,186.47658 C -144.28804,186.47658 -157.30974,172.76953 -157.9951,145.35542 C -158.68045,117.94132 -158.68045,104.91962 -163.47792,100.12215 C -168.27539,95.324681 -183.35314,95.324681 -191.57737,104.91962 C -199.80161,114.51455 -234.06924,165.916 -238.18135,171.39882 C -242.29347,176.88164 -266.96616,213.20533 -267.65151,213.20533 C -268.33686,213.20533 -255.31516,187.16193 -253.25911,179.62305 C -251.20305,172.08417 -249.14699,133.01907 -243.66417,117.94132 C -238.18135,102.86356 -234.75459,91.212561 -227.90106,89.841861 C -221.04754,88.471151 -205.28443,85.729741 -193.63343,87.785801 C -181.98244,89.841861 -164.84862,96.010031 -162.10721,100.12215 C -159.3658,104.23426 -153.88298,156.32106 -153.88298,164.54529 C -153.88298,172.76953 -142.23199,187.16193 -144.28804,186.47658 z"
             id="path3706" />
        </g>
      </g>
      <g
         id="g3646"
         transform="matrix(0.5580658,2.0371876e-2,-2.0371876e-2,0.5580658,214.78564,0.10928)"
         inkscape:export-filename="/home/eric/_mesdocs/mes_images_vectorielles/latexila_agave/latexila_logo_proposition.png"
         inkscape:export-xdpi="138.25844"
         inkscape:export-ydpi="138.25844">
        <path
           id="path3606"
           d="M -195.23459,349.99171 C -195.23459,349.99171 -195.08417,301.95366 -187.51937,274.88297 C -179.95456,247.81226 -159.74909,218.28779 -150.42143,212.16674 C -141.09376,206.04569 -115.96307,196.15098 -108.80564,193.01515 C -101.64823,189.87932 -113.96997,196.65589 -122.30551,204.44228 C -130.64106,212.22868 -134.21967,240.3092 -138.56901,249.10541 C -142.91836,257.90162 -182.40795,341.22204 -185.41971,347.52909 C -188.43148,353.83615 -195.89896,349.82341 -195.23459,349.99171 z"
           style="opacity:1;fill:url(#linearGradient3824);fill-opacity:1;fill-rule:evenodd;stroke:#000000;stroke-width:3.0999999;stroke-linecap:round;stroke-linejoin:round;marker:none;marker-start:none;marker-mid:none;marker-end:none;stroke-miterlimit:4;stroke-dasharray:none;stroke-dashoffset:0;stroke-opacity:1;visibility:visible;display:inline;overflow:visible;enable-background:accumulate" />
        <path
           sodipodi:nodetypes="ccsccssc"
           id="path3616"
           d="M -210.32399,152.37626 L -203.53934,226.52273 C -203.53934,226.52273 -196.7547,325.3847 -202.57011,346.70787 C -208.38552,368.03104 -192.87776,381.60033 -192.87776,381.60033 L -170.58536,289.52301 C -170.58536,289.52301 -171.55459,240.09202 -177.37,217.79962 C -179.99498,207.73721 -188.31959,197.23444 -195.24663,186.08035 C -203.66586,172.52352 -204.89896,161.58399 -210.32399,152.37626 z"
           style="opacity:1;fill:url(#linearGradient3810);fill-opacity:1;fill-rule:evenodd;stroke:#000000;stroke-width:3.0999999;stroke-linecap:round;stroke-linejoin:round;marker:none;marker-start:none;marker-mid:none;marker-end:none;stroke-miterlimit:4;stroke-dasharray:none;stroke-dashoffset:0;stroke-opacity:1;visibility:visible;display:inline;overflow:visible;enable-background:accumulate" />
        <path
           id="path3612"
           d="M -297.02053,196.43933 C -297.02053,196.43933 -268.26624,219.47513 -268.83036,229.15105 C -269.39448,238.82697 -255.82416,285.83207 -251.49305,296.47301 C -247.16194,307.11395 -231.89925,325.09128 -231.89925,325.09128 L -201.68169,316.36751 L -212.1551,314.49475 C -212.1551,314.49475 -214.38866,287.85947 -219.74635,273.17807 C -225.10403,258.49668 -246.97578,227.31839 -260.98281,216.11333 C -274.98984,204.90828 -295.59734,197.00775 -297.02053,196.43933 z"
           style="opacity:1;fill:url(#linearGradient3826);fill-opacity:1;fill-rule:evenodd;stroke:#000000;stroke-width:3.0999999;stroke-linecap:round;stroke-linejoin:round;marker:none;marker-start:none;marker-mid:none;marker-end:none;stroke-miterlimit:4;stroke-dasharray:none;stroke-dashoffset:0;stroke-opacity:1;visibility:visible;display:inline;overflow:visible;enable-background:accumulate" />
        <path
           id="path3614"
           d="M -224.86251,377.72339 C -224.86251,377.72339 -251.03186,299.21536 -251.03186,252.69208 C -251.03186,206.1688 -223.89328,134.44541 -223.89328,134.44541 C -223.89328,134.44541 -226.80098,176.12251 -226.80098,196.47645 C -226.80098,216.83038 -207.41628,324.41546 -207.41628,342.83093 C -207.41628,361.24639 -223.89328,378.69262 -224.86251,377.72339 z"
           style="opacity:1;fill:url(#linearGradient3772);fill-opacity:1;fill-rule:evenodd;stroke:#000000;stroke-width:3.0999999;stroke-linecap:round;stroke-linejoin:round;marker:none;marker-start:none;marker-mid:none;marker-end:none;stroke-miterlimit:4;stroke-dasharray:none;stroke-dashoffset:0;stroke-opacity:1;visibility:visible;display:inline;overflow:visible;enable-background:accumulate" />
        <path
           style="fill:url(#linearGradient3877);fill-opacity:1;fill-rule:evenodd;stroke:#000000;stroke-width:2.80220747;stroke-linecap:round;stroke-linejoin:round;stroke-miterlimit:4;stroke-dasharray:none;stroke-opacity:1"
           d="M -164.22435,362.36558 C -157.21342,345.22123 -167.66106,324.79433 -168.69571,306.86591 C -170.02024,295.44452 -167.71749,276.91804 -162.20702,266.27249 C -155.67008,251.59373 -148.06457,237.2233 -139.99562,223.0314 C -159.63975,241.79021 -179.70617,260.48241 -195.80357,281.30391 C -202.79775,289.54939 -208.95671,309.99118 -211.79197,319.27176 C -216.14286,337.50511 -221.93072,343.06869 -232.31147,359.3806 C -236.9327,366.14611 -237.02035,374.99522 -229.76468,380.85704 C -220.37114,388.44607 -207.77334,391.66329 -192.71133,387.27396 C -181.96488,384.14226 -171.97011,381.30681 -164.22435,362.36558 z"
           id="path3592"
           sodipodi:nodetypes="cccccccsss" />
        <g
           transform="matrix(1.1818633,6.9640116e-2,-7.7288888e-2,1.0649021,59.679462,-13.166977)"
           id="g3608">
          <path
             style="opacity:1;fill:url(#linearGradient3869);fill-opacity:1;fill-rule:evenodd;stroke:#000000;stroke-width:3.0999999;stroke-linecap:round;stroke-linejoin:round;marker:none;marker-start:none;marker-mid:none;marker-end:none;stroke-miterlimit:4;stroke-dasharray:none;stroke-dashoffset:0;stroke-opacity:1;visibility:visible;display:inline;overflow:visible;enable-background:accumulate"
             d="M -193.89882,377.38769 L -192.52812,382.87051 C -192.52812,382.87051 -183.61853,390.40939 -176.765,384.92657 C -169.91148,379.44375 -164.42866,344.49077 -165.11401,334.21048 C -165.79936,323.93019 -165.79936,310.90849 -161.68725,309.53778 C -157.57513,308.16708 -171.28218,299.94285 -171.28218,299.94285 C -171.28218,299.94285 -189.10135,298.57214 -195.95488,301.99891 C -202.8084,305.42567 -202.12305,330.09836 -200.06699,333.52513 C -198.01094,336.95189 -193.21347,354.77106 -193.21347,359.56853 C -193.21347,364.36599 -193.21347,378.07305 -193.89882,377.38769 z"
             id="path3604" />
          <path
             style="opacity:1;fill:url(#linearGradient3867);fill-opacity:1;fill-rule:evenodd;stroke:#000000;stroke-width:3.0999999;stroke-linecap:round;stroke-linejoin:round;marker:none;marker-start:none;marker-mid:none;marker-end:none;stroke-miterlimit:4;stroke-dasharray:none;stroke-dashoffset:0;stroke-opacity:1;visibility:visible;display:inline;overflow:visible;enable-background:accumulate"
             d="M -194.58417,377.38769 C -194.58417,377.38769 -192.52812,367.79276 -195.26953,353.40035 C -198.01094,339.00795 -207.60587,310.90849 -197.32558,302.68426 C -187.04529,294.46003 -145.23878,317.76202 -145.23878,317.76202 C -145.23878,317.76202 -73.276756,376.01699 -67.793936,378.07305 C -62.311116,380.1291 -95.208036,337.63724 -102.74692,325.98625 C -110.2858,314.33525 -119.88074,296.51608 -122.62215,293.08932 C -125.36356,289.66256 -134.27314,283.49438 -145.23878,285.55044 C -156.20443,287.6065 -189.10135,298.57214 -194.58417,301.31355 C -200.06699,304.05496 -200.75235,307.48173 -202.12305,312.96455 C -203.49376,318.44737 -194.58417,351.34429 -194.58417,358.88317 C -194.58417,366.42205 -194.58417,377.38769 -194.58417,377.38769 z"
             id="path3602" />
        </g>
        <path
           sodipodi:nodetypes="cccccccsss"
           id="path2813"
           d="M -233.12496,375.66236 C -248.7953,359.60252 -250.92246,332.24891 -259.94777,311.79731 C -265.11188,298.47762 -277.4053,278.81781 -288.15377,269.35152 C -302.04064,255.83486 -316.69686,243.12928 -331.66197,230.82546 C -303.98059,243.1636 -275.96454,255.24284 -250.26091,271.4324 C -239.53697,277.57279 -222.78892,297.68339 -215.15089,306.79652 C -201.21769,325.234 -193.04151,328.91003 -174.86731,342.56816 C -167.05158,348.09497 -162.07038,357.92791 -165.2063,367.63865 C -169.26621,380.2107 -178.56843,389.3067 -194.25446,390.99474 C -205.44615,392.19912 -215.81224,393.4054 -233.12496,375.66236 z"
           style="fill:url(#linearGradient3834);fill-opacity:1;fill-rule:evenodd;stroke:#000000;stroke-width:3.0999999;stroke-linecap:round;stroke-linejoin:round;stroke-miterlimit:4;stroke-dasharray:none;stroke-opacity:1" />
        <g
           transform="matrix(1.0968801,0,0,0.9575826,-45.307999,204.49335)"
           id="g3598">
          <path
             style="opacity:1;fill:url(#linearGradient3851);fill-opacity:1;fill-rule:evenodd;stroke:#000000;stroke-width:3.0999999;stroke-linecap:round;stroke-linejoin:round;marker:none;marker-start:none;marker-mid:none;marker-end:none;stroke-miterlimit:4;stroke-dasharray:none;stroke-dashoffset:0;stroke-opacity:1;visibility:visible;display:inline;overflow:visible;enable-background:accumulate"
             d="M -146.21029,194.74633 C -146.21029,194.74633 -154.43452,196.11703 -163.34411,188.57815 C -172.25369,181.03927 -181.84863,162.53475 -183.90469,150.88376 C -185.96074,139.23276 -199.6678,115.93078 -199.6678,115.93078 L -194.87033,100.85302 L -172.25369,95.370197 C -172.25369,95.370197 -161.9734,97.426247 -160.6027,104.27978 C -159.23199,111.13331 -159.23199,156.36658 -157.17593,163.22011 C -155.11988,170.07363 -142.78353,185.83674 -143.46888,187.8928 C -144.15423,189.94886 -145.52494,194.74633 -146.21029,194.74633 z"
             id="path3596" />
          <path
             id="path3594"
             d="M -144.28804,186.47658 C -144.28804,186.47658 -157.30974,172.76953 -157.9951,145.35542 C -158.68045,117.94132 -158.68045,104.91962 -163.47792,100.12215 C -168.27539,95.324681 -183.35314,95.324681 -191.57737,104.91962 C -199.80161,114.51455 -234.06924,165.916 -238.18135,171.39882 C -242.29347,176.88164 -266.96616,213.20533 -267.65151,213.20533 C -268.33686,213.20533 -255.31516,187.16193 -253.25911,179.62305 C -251.20305,172.08417 -249.14699,133.01907 -243.66417,117.94132 C -238.18135,102.86356 -234.75459,91.212561 -227.90106,89.841861 C -221.04754,88.471151 -205.28443,85.729741 -193.63343,87.785801 C -181.98244,89.841861 -164.84862,96.010031 -162.10721,100.12215 C -159.3658,104.23426 -153.88298,156.32106 -153.88298,164.54529 C -153.88298,172.76953 -142.23199,187.16193 -144.28804,186.47658 z"
             style="opacity:1;fill:url(#linearGradient3859);fill-opacity:1;fill-rule:evenodd;stroke:#000000;stroke-width:3.0999999;stroke-linecap:round;stroke-linejoin:round;marker:none;marker-start:none;marker-mid:none;marker-end:none;stroke-miterlimit:4;stroke-dasharray:none;stroke-dashoffset:0;stroke-opacity:1;visibility:visible;display:inline;overflow:visible;enable-background:accumulate" />
        </g>
      </g>
    </g>
    <path
       sodipodi:nodetypes="cscccsc"
       id="path3836"
       d="M 123.35318,198.47548 C 123.35318,206.9433 115.87133,213.61769 108.0735,213.75516 C 101.20168,213.87631 100.56181,215.02298 102.79461,210.51365 C 99.848382,206.33442 99.705433,205.29792 96.489028,198.29376 C 96.468021,188.65895 96.581056,187.41399 96.745567,185.01312 C 99.937445,186.27601 106.24517,182.97058 112.04001,184.86688 C 117.91952,186.79089 123.26391,193.93781 123.29222,198.18264"
       inkscape:transform-center-y="-6.5423361"
       inkscape:transform-center-x="5.8154099"
       style="fill:url(#radialGradient3843);fill-opacity:1;fill-rule:evenodd;stroke:none;stroke-width:1.35334122;stroke-linecap:round;stroke-linejoin:round;marker:none;marker-start:none;marker-mid:none;marker-end:none;stroke-miterlimit:4;stroke-dashoffset:0;stroke-opacity:1;visibility:visible;display:inline;overflow:visible;enable-background:accumulate" />
  </g>
  <g
     id="g3676"
     transform="translate(1.7174931,19.575805)">
    <path
       style="fill:#000000;stroke:#000000;stroke-width:1.20000005;stroke-linecap:round;stroke-linejoin:miter;stroke-miterlimit:4;stroke-dasharray:none;stroke-opacity:1;filter:url(#filter3587)"
       d="M 208.50919,221.97978 C 208.50919,221.52592 209.62954,221.15456 210.99883,221.15456 L 213.48845,221.15456 L 213.26823,199.90476 L 213.04798,178.65496 L 210.77858,178.39384 C 208.1157,178.08743 207.6951,176.59186 210.27182,176.59186 C 211.89644,176.59186 211.99297,176.28913 211.50454,172.72561 C 210.50476,165.4314 207.49381,163.1343 199.48767,163.55771 L 194.89282,163.80072 L 194.89282,184.8442 L 194.89282,205.8877 L 198.40007,206.14146 C 200.32904,206.28104 201.90732,206.74523 201.90732,207.17301 C 201.90732,207.6169 197.63524,207.9508 191.95578,207.9508 C 185.53158,207.9508 182.18505,207.65829 182.51429,207.12555 C 182.79481,206.67169 184.44808,206.30033 186.18827,206.30033 C 188.31209,206.30033 189.51688,205.8712 189.85312,204.99499 C 190.64277,202.93717 190.41175,165.58227 189.60146,164.30266 C 189.04639,163.42613 187.46727,163.2548 182.93336,163.5792 C 175.70919,164.09607 174.08271,165.40866 173.12001,171.49868 C 172.13174,177.7504 171.05104,177.91969 171.67073,171.7257 C 171.9612,168.82238 172.19885,165.38734 172.19885,164.09228 L 172.19885,161.73763 L 191.95393,161.73763 L 211.70899,161.73763 L 212.1742,165.24487 C 212.43006,167.17387 212.73133,170.42323 212.8437,172.46569 L 213.04798,176.17924 L 228.10851,176.40416 C 243.04974,176.62731 243.1694,176.64367 243.21144,178.46726 C 243.23474,179.47825 243.53254,182.81207 243.87319,185.87575 C 244.53496,191.82736 243.73122,193.64257 242.85646,188.17201 C 241.53089,179.88238 238.86997,178.24233 226.74596,178.24233 L 218.412,178.24233 L 218.412,188.14515 L 218.412,198.04798 L 223.36342,198.04798 C 229.16,198.04798 231.61578,196.31445 231.61578,192.22262 C 231.61578,190.74984 231.95954,189.91069 232.44101,190.20824 C 232.90591,190.49556 233.26623,194.48052 233.26623,199.33453 C 233.26623,204.52854 232.93846,207.9508 232.44101,207.9508 C 231.98712,207.9508 231.61578,206.83673 231.61578,205.4751 C 231.61578,201.43602 229.13351,199.69843 223.36342,199.69843 L 218.412,199.69843 L 218.412,210.4265 L 218.412,221.15456 L 227.15856,221.15456 C 239.60408,221.15456 242.54605,219.36652 244.37229,210.69268 C 244.88008,208.28088 244.73811,208.04525 242.60255,207.75515 C 240.5481,207.47607 240.4708,207.36722 241.9312,206.80981 C 247.85758,204.54778 248.75119,203.707 255.03742,194.47793 L 261.54175,184.92866 L 255.53211,176.01516 C 247.84155,164.60844 246.71257,163.38812 243.85043,163.38812 C 242.56792,163.38812 241.5186,163.01676 241.5186,162.56285 C 241.5186,162.07385 244.54444,161.73763 248.94569,161.73763 C 255.77319,161.73763 258.21226,162.50565 255.13498,163.68654 C 254.45415,163.94778 253.89711,164.647 253.89711,165.24036 C 253.89711,166.24173 263.54861,180.71803 264.21626,180.71803 C 264.3815,180.71803 266.58358,177.71759 269.10973,174.05035 C 273.79181,167.2534 274.67233,164.53358 272.46491,163.68654 C 269.55072,162.56825 271.66098,161.73763 277.41633,161.73763 C 280.99234,161.73763 283.60558,162.08608 283.60558,162.56285 C 283.60558,163.01676 283.03012,163.38812 282.32675,163.38812 C 279.25018,163.38812 276.11765,166.29121 270.81273,174.05887 L 265.13447,182.37316 L 271.68801,192.02788 C 280.21927,204.59617 281.69446,206.30033 284.04286,206.30033 C 285.11041,206.30033 286.21338,206.67169 286.4939,207.12555 C 286.81957,207.65252 284.30185,207.9508 279.5281,207.9508 C 275.09438,207.9508 272.05229,207.61499 272.05229,207.12555 C 272.05229,206.67169 272.60933,206.30033 273.29016,206.30033 C 275.61692,206.30033 274.52659,203.67983 268.62499,195.08828 C 265.37834,190.36181 262.60515,186.4947 262.46231,186.4947 C 261.80174,186.4947 250.59619,203.401 250.59619,204.39768 C 250.59619,205.01874 251.15321,205.74064 251.83403,206.0019 C 254.13068,206.8832 253.0937,207.85429 249.58328,208.10966 C 245.72548,208.39028 246.07591,207.65351 244.45786,218.88516 L 243.89315,222.80501 L 226.20119,222.80501 C 214.95668,222.80501 208.50919,222.50428 208.50919,221.97978 z M 125.9857,207.53817 C 125.9857,206.7114 126.81247,206.30033 128.47532,206.30033 L 130.96497,206.30033 L 130.74472,185.05052 L 130.52447,163.80072 L 128.2551,163.53959 C 127.00693,163.39599 125.9857,162.93181 125.9857,162.50806 C 125.9857,162.08236 129.67805,161.73763 134.23804,161.73763 C 138.83602,161.73763 142.49038,162.08102 142.49038,162.51304 C 142.49038,162.93955 141.09781,163.40373 139.39576,163.54459 L 136.30112,163.80072 L 136.08089,185.05052 L 135.86064,206.30033 L 142.68276,206.28815 C 152.61491,206.27046 155.56076,204.16643 157.78184,195.50396 L 158.92808,191.03347 L 158.46225,199.28583 C 158.20604,203.82461 157.82783,207.8167 157.62182,208.1571 C 157.41579,208.49752 150.21337,208.77602 141.61646,208.77602 C 128.27261,208.77602 125.9857,208.59494 125.9857,207.53817 z M 329.81875,208.19323 C 327.0368,207.17627 324.86733,204.32294 324.86733,201.68101 C 324.86733,196.40153 331.15607,191.99659 339.72156,191.27633 C 342.60568,191.03384 342.6098,191.02758 342.55035,186.99095 C 342.50114,183.65066 342.09892,182.61133 340.23492,181.00799 C 337.02187,178.24425 333.58721,178.47306 330.39684,181.66343 C 327.81945,184.24085 327.81403,184.26411 329.6351,184.93778 C 331.7716,185.72812 332.01228,187.49236 330.18994,189.00477 C 329.13572,189.87971 328.68136,189.83717 327.60725,188.76304 C 325.98782,187.14361 326.62924,184.11561 329.23295,181.08863 C 332.69195,177.06731 341.02712,177.57065 344.73307,182.0247 C 345.56717,183.02716 346.03675,186.64847 346.3424,194.43533 C 346.7981,206.04557 347.53219,208.32346 350.26602,206.61036 C 351.15185,206.05526 351.78309,204.42973 351.94123,202.29643 C 352.20999,198.67078 353.75057,197.46696 353.75057,200.88258 C 353.75057,206.64246 349.73298,210.11843 345.94463,207.63621 C 344.79132,206.88054 343.84773,205.67532 343.84773,204.95798 C 343.84773,204.00609 343.05952,204.34568 340.9307,206.21484 C 338.60951,208.25284 337.30311,208.76272 334.53513,208.71087 C 332.62193,208.67505 330.49955,208.44211 329.81875,208.19323 z M 338.3085,207.05525 C 341.36079,205.66453 343.02249,202.08088 343.02249,196.88909 C 343.02249,192.3973 342.96059,192.27183 340.75309,192.28947 C 337.56668,192.31491 331.94214,195.03071 330.34071,197.31706 C 328.24439,200.30998 328.60743,204.22639 331.16787,206.24042 C 333.60874,208.16042 335.42742,208.36795 338.3085,207.05525 z M 290.20747,207.12555 C 290.20747,206.67169 291.14553,206.30033 292.29205,206.30033 L 294.37663,206.30033 L 294.14882,193.71549 C 293.92538,181.37175 293.88546,181.12561 292.06424,180.86694 C 289.82438,180.54885 289.56965,179.06758 291.75478,179.06758 C 292.60579,179.06758 294.46259,178.83547 295.88095,178.55179 L 298.45981,178.03603 L 298.45981,192.16816 C 298.45981,205.60693 298.53839,206.30033 300.06156,206.30033 C 300.94255,206.30033 301.89286,206.67169 302.17338,207.12555 C 302.49621,207.64793 300.39393,207.9508 296.44543,207.9508 C 292.83694,207.9508 290.20747,207.60294 290.20747,207.12555 z M 307.5374,207.12555 C 307.5374,206.67169 308.47205,206.30033 309.61442,206.30033 L 311.69142,206.30033 L 311.47119,185.05052 L 311.25097,163.80072 L 309.39417,163.53701 C 305.53365,162.98874 308.0352,160.9124 312.5563,160.9124 L 314.96449,160.9124 L 314.96449,182.30102 C 314.96449,194.06475 315.18991,204.27703 315.4654,204.99499 C 315.74092,205.71292 316.85499,206.30033 317.94112,206.30033 C 319.02726,206.30033 319.91593,206.67169 319.91593,207.12555 C 319.91593,207.60236 317.30267,207.9508 313.72666,207.9508 C 310.15064,207.9508 307.5374,207.60236 307.5374,207.12555 z M 140.42731,199.69843 C 140.70781,199.24457 141.4149,198.87321 141.99858,198.87321 C 144.16924,198.87321 145.76756,195.58083 151.50181,179.2974 C 158.69582,158.86879 158.22472,160.08717 158.92971,160.08717 C 159.2505,160.08717 161.06105,164.5011 162.95315,169.89587 C 173.45281,199.8328 173.04814,198.87321 175.17303,198.87321 C 176.2605,198.87321 177.15027,199.24457 177.15027,199.69843 C 177.15027,200.17001 174.67455,200.52368 171.37362,200.52368 C 168.07268,200.52368 165.59698,200.17001 165.59698,199.69843 C 165.59698,199.24457 166.13209,198.87321 166.78611,198.87321 C 168.91397,198.87321 168.95352,197.43149 166.9713,192.12541 L 165.02193,186.9073 L 157.55555,186.67115 L 150.08918,186.43502 L 148.39378,191.45538 C 146.64834,196.62392 146.76178,198.87321 148.76794,198.87321 C 149.40019,198.87321 149.9175,199.24457 149.9175,199.69843 C 149.9175,200.1578 147.70065,200.52368 144.91739,200.52368 C 141.79413,200.52368 140.10872,200.21391 140.42731,199.69843 z M 163.94651,184.57281 C 163.94651,183.96966 162.51807,179.46842 160.77221,174.57004 C 158.41477,167.95579 157.43939,166.06126 156.98195,167.20802 C 155.81135,170.14242 150.74275,184.77713 150.74275,185.22255 C 150.74275,185.46834 153.71359,185.66945 157.34462,185.66945 C 162.28497,185.66945 163.94651,185.39346 163.94651,184.57281 z M 294.81424,168.9039 C 292.87616,167.48673 293.43975,164.6972 295.73039,164.36957 C 298.24549,164.00983 299.76281,166.91862 297.98662,168.69483 C 296.42879,170.25267 296.63976,170.23877 294.81424,168.9039 z"
       id="path3678"
       inkscape:export-filename="/home/eric/_mesdocs/mes_images_vectorielles/latexila_agave/latexila_logo_proposition.png"
       inkscape:export-xdpi="138.25844"
       inkscape:export-ydpi="138.25844" />
    <path
       inkscape:export-ydpi="138.25844"
       inkscape:export-xdpi="138.25844"
       inkscape:export-filename="/home/eric/_mesdocs/mes_images_vectorielles/latexila_agave/latexila_logo_proposition.png"
       id="path3680"
       d="M 208.50919,221.97978 C 208.50919,221.52592 209.62954,221.15456 210.99883,221.15456 L 213.48845,221.15456 L 213.26823,199.90476 L 213.04798,178.65496 L 210.77858,178.39384 C 208.1157,178.08743 207.6951,176.59186 210.27182,176.59186 C 211.89644,176.59186 211.99297,176.28913 211.50454,172.72561 C 210.50476,165.4314 207.49381,163.1343 199.48767,163.55771 L 194.89282,163.80072 L 194.89282,184.8442 L 194.89282,205.8877 L 198.40007,206.14146 C 200.32904,206.28104 201.90732,206.74523 201.90732,207.17301 C 201.90732,207.6169 197.63524,207.9508 191.95578,207.9508 C 185.53158,207.9508 182.18505,207.65829 182.51429,207.12555 C 182.79481,206.67169 184.44808,206.30033 186.18827,206.30033 C 188.31209,206.30033 189.51688,205.8712 189.85312,204.99499 C 190.64277,202.93717 190.41175,165.58227 189.60146,164.30266 C 189.04639,163.42613 187.46727,163.2548 182.93336,163.5792 C 175.70919,164.09607 174.08271,165.40866 173.12001,171.49868 C 172.13174,177.7504 171.05104,177.91969 171.67073,171.7257 C 171.9612,168.82238 172.19885,165.38734 172.19885,164.09228 L 172.19885,161.73763 L 191.95393,161.73763 L 211.70899,161.73763 L 212.1742,165.24487 C 212.43006,167.17387 212.73133,170.42323 212.8437,172.46569 L 213.04798,176.17924 L 228.10851,176.40416 C 243.04974,176.62731 243.1694,176.64367 243.21144,178.46726 C 243.23474,179.47825 243.53254,182.81207 243.87319,185.87575 C 244.53496,191.82736 243.73122,193.64257 242.85646,188.17201 C 241.53089,179.88238 238.86997,178.24233 226.74596,178.24233 L 218.412,178.24233 L 218.412,188.14515 L 218.412,198.04798 L 223.36342,198.04798 C 229.16,198.04798 231.61578,196.31445 231.61578,192.22262 C 231.61578,190.74984 231.95954,189.91069 232.44101,190.20824 C 232.90591,190.49556 233.26623,194.48052 233.26623,199.33453 C 233.26623,204.52854 232.93846,207.9508 232.44101,207.9508 C 231.98712,207.9508 231.61578,206.83673 231.61578,205.4751 C 231.61578,201.43602 229.13351,199.69843 223.36342,199.69843 L 218.412,199.69843 L 218.412,210.4265 L 218.412,221.15456 L 227.15856,221.15456 C 239.60408,221.15456 242.54605,219.36652 244.37229,210.69268 C 244.88008,208.28088 244.73811,208.04525 242.60255,207.75515 C 240.5481,207.47607 240.4708,207.36722 241.9312,206.80981 C 247.85758,204.54778 248.75119,203.707 255.03742,194.47793 L 261.54175,184.92866 L 255.53211,176.01516 C 247.84155,164.60844 246.71257,163.38812 243.85043,163.38812 C 242.56792,163.38812 241.5186,163.01676 241.5186,162.56285 C 241.5186,162.07385 244.54444,161.73763 248.94569,161.73763 C 255.77319,161.73763 258.21226,162.50565 255.13498,163.68654 C 254.45415,163.94778 253.89711,164.647 253.89711,165.24036 C 253.89711,166.24173 263.54861,180.71803 264.21626,180.71803 C 264.3815,180.71803 266.58358,177.71759 269.10973,174.05035 C 273.79181,167.2534 274.67233,164.53358 272.46491,163.68654 C 269.55072,162.56825 271.66098,161.73763 277.41633,161.73763 C 280.99234,161.73763 283.60558,162.08608 283.60558,162.56285 C 283.60558,163.01676 283.03012,163.38812 282.32675,163.38812 C 279.25018,163.38812 276.11765,166.29121 270.81273,174.05887 L 265.13447,182.37316 L 271.68801,192.02788 C 280.21927,204.59617 281.69446,206.30033 284.04286,206.30033 C 285.11041,206.30033 286.21338,206.67169 286.4939,207.12555 C 286.81957,207.65252 284.30185,207.9508 279.5281,207.9508 C 275.09438,207.9508 272.05229,207.61499 272.05229,207.12555 C 272.05229,206.67169 272.60933,206.30033 273.29016,206.30033 C 275.61692,206.30033 274.52659,203.67983 268.62499,195.08828 C 265.37834,190.36181 262.60515,186.4947 262.46231,186.4947 C 261.80174,186.4947 250.59619,203.401 250.59619,204.39768 C 250.59619,205.01874 251.15321,205.74064 251.83403,206.0019 C 254.13068,206.8832 253.0937,207.85429 249.58328,208.10966 C 245.72548,208.39028 246.07591,207.65351 244.45786,218.88516 L 243.89315,222.80501 L 226.20119,222.80501 C 214.95668,222.80501 208.50919,222.50428 208.50919,221.97978 z M 125.9857,207.53817 C 125.9857,206.7114 126.81247,206.30033 128.47532,206.30033 L 130.96497,206.30033 L 130.74472,185.05052 L 130.52447,163.80072 L 128.2551,163.53959 C 127.00693,163.39599 125.9857,162.93181 125.9857,162.50806 C 125.9857,162.08236 129.67805,161.73763 134.23804,161.73763 C 138.83602,161.73763 142.49038,162.08102 142.49038,162.51304 C 142.49038,162.93955 141.09781,163.40373 139.39576,163.54459 L 136.30112,163.80072 L 136.08089,185.05052 L 135.86064,206.30033 L 142.68276,206.28815 C 152.61491,206.27046 155.56076,204.16643 157.78184,195.50396 L 158.92808,191.03347 L 158.46225,199.28583 C 158.20604,203.82461 157.82783,207.8167 157.62182,208.1571 C 157.41579,208.49752 150.21337,208.77602 141.61646,208.77602 C 128.27261,208.77602 125.9857,208.59494 125.9857,207.53817 z M 329.81875,208.19323 C 327.0368,207.17627 324.86733,204.32294 324.86733,201.68101 C 324.86733,196.40153 331.15607,191.99659 339.72156,191.27633 C 342.60568,191.03384 342.6098,191.02758 342.55035,186.99095 C 342.50114,183.65066 342.09892,182.61133 340.23492,181.00799 C 337.02187,178.24425 333.58721,178.47306 330.39684,181.66343 C 327.81945,184.24085 327.81403,184.26411 329.6351,184.93778 C 331.7716,185.72812 332.01228,187.49236 330.18994,189.00477 C 329.13572,189.87971 328.68136,189.83717 327.60725,188.76304 C 325.98782,187.14361 326.62924,184.11561 329.23295,181.08863 C 332.69195,177.06731 341.02712,177.57065 344.73307,182.0247 C 345.56717,183.02716 346.03675,186.64847 346.3424,194.43533 C 346.7981,206.04557 347.53219,208.32346 350.26602,206.61036 C 351.15185,206.05526 351.78309,204.42973 351.94123,202.29643 C 352.20999,198.67078 353.75057,197.46696 353.75057,200.88258 C 353.75057,206.64246 349.73298,210.11843 345.94463,207.63621 C 344.79132,206.88054 343.84773,205.67532 343.84773,204.95798 C 343.84773,204.00609 343.05952,204.34568 340.9307,206.21484 C 338.60951,208.25284 337.30311,208.76272 334.53513,208.71087 C 332.62193,208.67505 330.49955,208.44211 329.81875,208.19323 z M 338.3085,207.05525 C 341.36079,205.66453 343.02249,202.08088 343.02249,196.88909 C 343.02249,192.3973 342.96059,192.27183 340.75309,192.28947 C 337.56668,192.31491 331.94214,195.03071 330.34071,197.31706 C 328.24439,200.30998 328.60743,204.22639 331.16787,206.24042 C 333.60874,208.16042 335.42742,208.36795 338.3085,207.05525 z M 290.20747,207.12555 C 290.20747,206.67169 291.14553,206.30033 292.29205,206.30033 L 294.37663,206.30033 L 294.14882,193.71549 C 293.92538,181.37175 293.88546,181.12561 292.06424,180.86694 C 289.82438,180.54885 289.56965,179.06758 291.75478,179.06758 C 292.60579,179.06758 294.46259,178.83547 295.88095,178.55179 L 298.45981,178.03603 L 298.45981,192.16816 C 298.45981,205.60693 298.53839,206.30033 300.06156,206.30033 C 300.94255,206.30033 301.89286,206.67169 302.17338,207.12555 C 302.49621,207.64793 300.39393,207.9508 296.44543,207.9508 C 292.83694,207.9508 290.20747,207.60294 290.20747,207.12555 z M 307.5374,207.12555 C 307.5374,206.67169 308.47205,206.30033 309.61442,206.30033 L 311.69142,206.30033 L 311.47119,185.05052 L 311.25097,163.80072 L 309.39417,163.53701 C 305.53365,162.98874 308.0352,160.9124 312.5563,160.9124 L 314.96449,160.9124 L 314.96449,182.30102 C 314.96449,194.06475 315.18991,204.27703 315.4654,204.99499 C 315.74092,205.71292 316.85499,206.30033 317.94112,206.30033 C 319.02726,206.30033 319.91593,206.67169 319.91593,207.12555 C 319.91593,207.60236 317.30267,207.9508 313.72666,207.9508 C 310.15064,207.9508 307.5374,207.60236 307.5374,207.12555 z M 140.42731,199.69843 C 140.70781,199.24457 141.4149,198.87321 141.99858,198.87321 C 144.16924,198.87321 145.76756,195.58083 151.50181,179.2974 C 158.69582,158.86879 158.22472,160.08717 158.92971,160.08717 C 159.2505,160.08717 161.06105,164.5011 162.95315,169.89587 C 173.45281,199.8328 173.04814,198.87321 175.17303,198.87321 C 176.2605,198.87321 177.15027,199.24457 177.15027,199.69843 C 177.15027,200.17001 174.67455,200.52368 171.37362,200.52368 C 168.07268,200.52368 165.59698,200.17001 165.59698,199.69843 C 165.59698,199.24457 166.13209,198.87321 166.78611,198.87321 C 168.91397,198.87321 168.95352,197.43149 166.9713,192.12541 L 165.02193,186.9073 L 157.55555,186.67115 L 150.08918,186.43502 L 148.39378,191.45538 C 146.64834,196.62392 146.76178,198.87321 148.76794,198.87321 C 149.40019,198.87321 149.9175,199.24457 149.9175,199.69843 C 149.9175,200.1578 147.70065,200.52368 144.91739,200.52368 C 141.79413,200.52368 140.10872,200.21391 140.42731,199.69843 z M 163.94651,184.57281 C 163.94651,183.96966 162.51807,179.46842 160.77221,174.57004 C 158.41477,167.95579 157.43939,166.06126 156.98195,167.20802 C 155.81135,170.14242 150.74275,184.77713 150.74275,185.22255 C 150.74275,185.46834 153.71359,185.66945 157.34462,185.66945 C 162.28497,185.66945 163.94651,185.39346 163.94651,184.57281 z M 294.81424,168.9039 C 292.87616,167.48673 293.43975,164.6972 295.73039,164.36957 C 298.24549,164.00983 299.76281,166.91862 297.98662,168.69483 C 296.42879,170.25267 296.63976,170.23877 294.81424,168.9039 z"
       style="fill:#ff6600;fill-opacity:1;stroke:#000000;stroke-width:1.20000005;stroke-linecap:round;stroke-linejoin:miter;stroke-miterlimit:4;stroke-dasharray:none;stroke-opacity:1" />
  </g>
  <g
     id="g849"
     transform="matrix(0.4074506,0,0,0.4074506,-32.202033,146.92003)"
     inkscape:export-filename="/home/eric/_mesdocs/mes_images_vectorielles/latexila_agave/latexila_logo_proposition.png"
     inkscape:export-xdpi="138.25844"
     inkscape:export-ydpi="138.25844">
    <path
       d="M 378.11574,120.60615 C 378.11574,123.54611 368.25833,126.31435 352.52114,126.31435 C 336.78394,126.31435 327.95529,123.7372 327.95529,120.79724 C 327.95529,117.85728 336.78394,115.66232 352.52114,115.66232 C 368.25833,115.66232 378.11574,117.66619 378.11574,120.60615 z"
       id="path1255"
       sodipodi:nodetypes="ccccc"
       style="fill:#ffff00;fill-opacity:0.5;fill-rule:evenodd;stroke:none;stroke-width:2.5;stroke-linejoin:round;stroke-dasharray:none" />
    <path
       d="M 374.53487,179.90825 C 374.53487,183.78868 365.51467,186.93801 354.40049,186.93801 C 343.28631,186.93801 334.26611,183.78868 334.26611,179.90825 C 334.26611,176.02782 343.28631,172.87849 354.40049,172.87849 C 365.51467,172.87849 374.53487,176.02782 374.53487,179.90825 z"
       id="path1253"
       style="fill:#7573ae;fill-opacity:0.14901961;fill-rule:evenodd;stroke:#000000;stroke-width:2.5;stroke-linejoin:round;stroke-dasharray:none" />
    <g
       id="g1269"
       transform="translate(103.4375,13.4375)">
      <path
         d="M 249.64736,121.7591 L 271.5625,128.125 C 271.5625,128.125 272.8125,145.9375 270.9375,150 C 267.1875,150.9375 248.125,145.9375 248.125,142.8125 C 248.125,139.6875 245.27236,127.3841 249.64736,121.7591 z"
         id="path1259"
         sodipodi:nodetypes="ccccc"
         style="fill:#7573ae;fill-opacity:0.15;fill-rule:evenodd;stroke:#000000;stroke-width:1pt"
         transform="matrix(0.640697,0.767794,-0.767794,0.640697,181.5949,-146.4382)" />
      <path
         d="M 271.5625,128.125 C 271.5625,128.125 272.8125,149.0625 271.25,150 C 269.6875,150.9375 286.875,146.5625 286.875,143.125 C 286.875,139.6875 286.25,125.9375 285.3125,124.0625 C 284.375,122.1875 271.5625,126.5625 271.5625,128.125 z"
         id="path1260"
         style="fill:#7573ae;fill-opacity:0.15;fill-rule:evenodd;stroke:#000000;stroke-width:1pt"
         transform="matrix(0.640697,0.767794,-0.767794,0.640697,181.5949,-146.4382)" />
      <path
         d="M 250,121.875 C 251.5625,122.5 267.1875,126.25 271.25,128.125 C 272.1875,127.1875 279.43366,122.90295 284.43366,123.21545 C 286.62116,124.77795 272.1875,118.125 268.125,115.9375 C 265.3125,118.75 254.6875,117.5 250,121.875 z"
         id="path1261"
         sodipodi:nodetypes="ccccc"
         style="fill:#7573ae;fill-opacity:0.15;fill-rule:evenodd;stroke:#000000;stroke-width:1pt"
         transform="matrix(0.640697,0.767794,-0.767794,0.640697,181.5949,-146.4382)" />
    </g>
    <path
       d="M 380.8202,90.74151 C 380.8202,95.05745 368.04798,98.56023 352.31078,98.56023 C 336.57359,98.56023 323.80137,95.05745 323.80137,90.74151 C 323.80137,86.42557 336.57359,82.92278 352.31078,82.92278 C 368.04798,82.92278 380.8202,86.42557 380.8202,90.74151 z"
       id="path1252"
       style="fill:#7573ae;fill-opacity:0.15;fill-rule:evenodd;stroke:#000000;stroke-width:2.5;stroke-linejoin:round;stroke-dasharray:none" />
    <path
       d="M 368.125,176.5625 L 378.4375,75.9375 C 378.125,74.0625 379.375,71.875 381.5625,71.875 C 383.75,71.875 428.74709,62.148209 430.4049,62.148209 C 432.29955,61.200886 430.99061,58.000216 428.83258,57.858701 C 425.25356,57.243524 380.3125,66.25 377.8125,66.875 C 375.3125,67.5 373.125,69.0625 372.1875,74.0625 C 373.4375,79.375 363.125,175.625 363.125,175.625 C 363.125,175.625 363.75,180.3125 368.125,176.5625 z"
       id="path1258"
       sodipodi:nodetypes="ccccccccc"
       style="fill:#ffffff;fill-opacity:1;fill-rule:evenodd;stroke:#000000;stroke-width:2.5;stroke-linecap:butt;stroke-linejoin:round;stroke-dasharray:none;stroke-opacity:1" />
    <path
       d="M 327.95529,121.10165 L 334.63166,181.14763 C 337.845,184.29839 342.73021,186.09814 355.26837,186.60033 C 363.62716,185.92041 368.23214,185.80041 374.07563,181.14763 C 374.67269,180.24107 378.24282,121.26737 378.24282,121.26737 C 376.15312,123.98704 367.64119,126.12326 353.61038,126.34989 C 340.00516,126.54099 327.95529,123.82132 327.95529,121.10165 z"
       id="path1257"
       sodipodi:nodetypes="ccccccc"
       style="fill:#ffff00;fill-opacity:0.5;fill-rule:evenodd;stroke:none;stroke-width:2.5;stroke-linejoin:round;stroke-dasharray:none" />
    <g
       id="g878"
       transform="matrix(0.718277,0,0,0.733494,247.6042,21.93419)">
      <path
         d="M 153.4663,91.761292 C 153.4663,114.50841 133.62558,132.96984 109.17896,132.96984 C 84.73235,132.96984 64.891621,114.50841 64.891621,91.761292 C 64.891621,69.014174 84.73235,50.552746 109.17896,50.552746 C 133.62558,50.552746 153.4663,69.014174 153.4663,91.761292 z"
         id="path879"
         style="fill:#ffea00;fill-rule:evenodd;stroke:#000000;stroke-width:2.3533268;stroke-linejoin:round"
         transform="matrix(1.073824,0,0,1.050951,-8.296811,-4.438526)" />
      <path
         d="M 152.99264,91.998122 C 156.34193,111.07723 122.43419,135.37181 108.7053,132.02252 C 88.612769,129.34309 62.743314,113.0868 66.092606,92.333051 C 64.083031,74.928595 84.258689,51.97373 108.7053,51.97373 C 133.82178,53.313447 149.30842,65.215648 152.99264,91.998122 z"
         id="path880"
         sodipodi:nodetypes="ccccc"
         style="fill:#ffffff;fill-opacity:1;fill-rule:evenodd;stroke:none;stroke-width:1pt" />
      <path
         d="M 111.86636,87.893239 C 111.86636,87.893239 115.21565,57.749609 116.8903,58.419468 C 120.57452,56.074963 130.28747,60.763973 129.28268,64.783123 C 129.61761,67.797485 112.20129,86.218593 111.86636,87.893239 z"
         id="path881"
         sodipodi:nodetypes="cccc"
         style="fill:#ffdb00;fill-opacity:1;fill-rule:evenodd;stroke:#000000;stroke-width:2.5;stroke-linecap:butt;stroke-linejoin:round;stroke-dasharray:none;stroke-opacity:1" />
      <path
         d="M 81.387798,75.500857 L 105.83763,89.567884 L 90.765816,64.448194 C 84.067232,63.108477 79.713152,67.462556 81.387798,75.500857 z"
         id="path882"
         sodipodi:nodetypes="cccc"
         style="fill:#ffdb00;fill-opacity:1;fill-rule:evenodd;stroke:#000000;stroke-width:2.5;stroke-linecap:butt;stroke-linejoin:round;stroke-dasharray:none;stroke-opacity:1" />
      <path
         d="M 108.85199,88.563097 L 94.450038,63.443406 C 94.450037,57.74961 107.8472,54.400318 110.19171,59.089326 C 112.53621,62.103689 108.85199,88.563097 108.85199,88.563097 z"
         id="path883"
         sodipodi:nodetypes="cccc"
         style="fill:#ffdb00;fill-opacity:1;fill-rule:evenodd;stroke:#000000;stroke-width:2.5;stroke-linecap:butt;stroke-linejoin:round;stroke-dasharray:none;stroke-opacity:1" />
      <path
         d="M 114.88072,88.898026 C 114.88072,88.898026 131.62717,66.457768 133.63675,68.132414 C 138.6607,66.122839 147.03392,72.821424 142.34491,81.194654 C 142.67984,83.20423 114.88072,86.553521 114.88072,88.898026 z"
         id="path884"
         sodipodi:nodetypes="cccc"
         style="fill:#ffdb00;fill-opacity:1;fill-rule:evenodd;stroke:#000000;stroke-width:2.5;stroke-linecap:butt;stroke-linejoin:round;stroke-dasharray:none;stroke-opacity:1" />
      <path
         d="M 113.541,92.247318 C 113.541,92.247318 138.32577,84.878875 143.3497,85.883663 C 147.03392,87.223379 147.03392,103.96984 140.00041,102.96506 C 136.98605,103.63492 114.88072,92.917176 113.541,92.247318 z"
         id="path885"
         sodipodi:nodetypes="cccc"
         style="fill:#ffdb00;fill-opacity:1;fill-rule:evenodd;stroke:#000000;stroke-width:2.5;stroke-linecap:butt;stroke-linejoin:round;stroke-dasharray:none;stroke-opacity:1" />
      <path
         d="M 112.87114,94.926752 C 112.87114,94.926752 136.31619,105.64448 137.99084,108.99378 C 143.3497,114.35265 131.96211,120.38137 127.60803,119.71151 C 126.93817,121.38616 110.86157,93.921964 112.87114,94.926752 z"
         id="path886"
         sodipodi:nodetypes="cccc"
         style="fill:#ffdb00;fill-opacity:1;fill-rule:evenodd;stroke:#000000;stroke-width:2.5;stroke-linecap:butt;stroke-linejoin:round;stroke-dasharray:none;stroke-opacity:1" />
      <path
         d="M 110.52664,95.931539 C 110.52664,95.931539 123.92381,121.72109 123.25395,123.39574 C 122.58409,125.07038 114.21086,130.76417 107.8472,126.07517 C 107.17734,123.39574 108.51707,96.266468 110.52664,95.931539 z"
         id="path887"
         sodipodi:nodetypes="cccc"
         style="fill:#ffdb00;fill-opacity:1;fill-rule:evenodd;stroke:#000000;stroke-width:2.5;stroke-linecap:butt;stroke-linejoin:round;stroke-dasharray:none;stroke-opacity:1" />
      <path
         d="M 107.17735,95.931539 C 107.17735,95.931539 103.1582,124.73545 100.81369,125.40531 C 97.799329,127.41489 89.09117,125.07039 87.416524,118.70672 C 88.421312,116.02729 104.16298,95.26168 107.17735,95.931539 z"
         id="path888"
         sodipodi:nodetypes="cccc"
         style="fill:#ffdb00;fill-opacity:1;fill-rule:evenodd;stroke:#000000;stroke-width:2.5;stroke-linecap:butt;stroke-linejoin:round;stroke-dasharray:none;stroke-opacity:1" />
      <path
         d="M 84.402161,115.35744 C 88.086382,113.01293 101.81848,95.931539 102.82326,94.256893 C 103.82805,92.582247 75.359072,97.606186 75.694001,99.280832 C 73.684426,102.2952 78.708365,116.02729 84.402161,115.35744 z"
         id="path889"
         sodipodi:nodetypes="cccc"
         style="fill:#ffdb00;fill-opacity:1;fill-rule:evenodd;stroke:#000000;stroke-width:2.5;stroke-linecap:butt;stroke-linejoin:round;stroke-dasharray:none;stroke-opacity:1" />
      <path
         d="M 74.354284,94.256893 C 79.713152,93.921964 97.129471,90.572672 100.81369,91.24253 C 104.49791,91.912389 79.713152,77.510433 79.713152,79.854937 C 75.024143,81.194654 67.6557,88.563096 74.354284,94.256893 z"
         id="path890"
         sodipodi:nodetypes="cccc"
         style="fill:#ffdb00;fill-opacity:1;fill-rule:evenodd;stroke:#000000;stroke-width:2.5;stroke-linecap:butt;stroke-linejoin:round;stroke-dasharray:none;stroke-opacity:1" />
    </g>
    <path
       d="M 323.80137,90.90786 L 334.24985,180.74003 C 334.54838,183.40172 343.20569,187.72697 355.74386,187.06155 C 364.10264,186.06341 368.87909,186.72883 374.55112,180.74003 C 375.14817,179.40918 380.60435,91.43167 380.60435,91.43167 C 378.51466,95.42421 367.08792,98.56023 353.05711,98.89294 C 339.62335,98.89294 323.80137,94.9004 323.80137,90.90786 z"
       id="path1254"
       sodipodi:nodetypes="ccccccc"
       style="fill:#7573ae;fill-opacity:0.15034964;fill-rule:evenodd;stroke:#000000;stroke-width:2.5;stroke-linejoin:round;stroke-dasharray:none" />
    <path
       d="M 325.9375,95.212654 C 326.76219,95.418827 340.12577,100.63148 343.95617,99.288115 C 345.51867,98.975615 348.31821,182.48704 347.91883,185.0804 C 343.60215,185.19969 339.12994,183.7176 335.625,180.625 L 325.9375,95.212654 z"
       id="path1273"
       sodipodi:nodetypes="ccccc"
       style="fill:#ffffff;fill-opacity:0.5;fill-rule:evenodd;stroke:none;stroke-width:1pt;stroke-linecap:butt;stroke-linejoin:miter;stroke-opacity:1" />
  </g>
  <g
     id="g3776"
     transform="matrix(0.5580658,2.0371876e-2,-2.0371876e-2,0.5580658,-1.9935511,-0.7034348)"
     inkscape:export-filename="/home/eric/_mesdocs/mes_images_vectorielles/latexila_agave/latexila_logo_proposition.png"
     inkscape:export-xdpi="138.25844"
     inkscape:export-ydpi="138.25844">
    <path
       id="path3778"
       d="M -195.23459,349.99171 C -195.23459,349.99171 -195.08417,301.95366 -187.51937,274.88297 C -179.95456,247.81226 -159.74909,218.28779 -150.42143,212.16674 C -141.09376,206.04569 -115.96307,196.15098 -108.80564,193.01515 C -101.64823,189.87932 -113.96997,196.65589 -122.30551,204.44228 C -130.64106,212.22868 -134.21967,240.3092 -138.56901,249.10541 C -142.91836,257.90162 -182.40795,341.22204 -185.41971,347.52909 C -188.43148,353.83615 -195.89896,349.82341 -195.23459,349.99171 z"
       style="opacity:1;fill:#00b9bb;fill-opacity:1;fill-rule:evenodd;stroke:#000000;stroke-width:3.0999999;stroke-linecap:round;stroke-linejoin:round;marker:none;marker-start:none;marker-mid:none;marker-end:none;stroke-miterlimit:4;stroke-dasharray:none;stroke-dashoffset:0;stroke-opacity:1;visibility:visible;display:inline;overflow:visible;enable-background:accumulate" />
    <path
       sodipodi:nodetypes="ccsccssc"
       id="path3780"
       d="M -210.32399,152.37626 L -203.53934,226.52273 C -203.53934,226.52273 -196.7547,325.3847 -202.57011,346.70787 C -208.38552,368.03104 -192.87776,381.60033 -192.87776,381.60033 L -170.58536,289.52301 C -170.58536,289.52301 -171.55459,240.09202 -177.37,217.79962 C -179.99498,207.73721 -188.31959,197.23444 -195.24663,186.08035 C -203.66586,172.52352 -204.89896,161.58399 -210.32399,152.37626 z"
       style="opacity:1;fill:#00b9bb;fill-opacity:1;fill-rule:evenodd;stroke:#000000;stroke-width:3.0999999;stroke-linecap:round;stroke-linejoin:round;marker:none;marker-start:none;marker-mid:none;marker-end:none;stroke-miterlimit:4;stroke-dasharray:none;stroke-dashoffset:0;stroke-opacity:1;visibility:visible;display:inline;overflow:visible;enable-background:accumulate" />
    <path
       id="path3782"
       d="M -297.02053,196.43933 C -297.02053,196.43933 -268.26624,219.47513 -268.83036,229.15105 C -269.39448,238.82697 -255.82416,285.83207 -251.49305,296.47301 C -247.16194,307.11395 -231.89925,325.09128 -231.89925,325.09128 L -201.68169,316.36751 L -212.1551,314.49475 C -212.1551,314.49475 -214.38866,287.85947 -219.74635,273.17807 C -225.10403,258.49668 -246.97578,227.31839 -260.98281,216.11333 C -274.98984,204.90828 -295.59734,197.00775 -297.02053,196.43933 z"
       style="opacity:1;fill:#00b9bb;fill-opacity:1;fill-rule:evenodd;stroke:#000000;stroke-width:3.0999999;stroke-linecap:round;stroke-linejoin:round;marker:none;marker-start:none;marker-mid:none;marker-end:none;stroke-miterlimit:4;stroke-dasharray:none;stroke-dashoffset:0;stroke-opacity:1;visibility:visible;display:inline;overflow:visible;enable-background:accumulate" />
    <path
       id="path3784"
       d="M -224.86251,377.72339 C -224.86251,377.72339 -251.03186,299.21536 -251.03186,252.69208 C -251.03186,206.1688 -223.89328,134.44541 -223.89328,134.44541 C -223.89328,134.44541 -226.80098,176.12251 -226.80098,196.47645 C -226.80098,216.83038 -207.41628,324.41546 -207.41628,342.83093 C -207.41628,361.24639 -223.89328,378.69262 -224.86251,377.72339 z"
       style="opacity:1;fill:#00b9bb;fill-opacity:1;fill-rule:evenodd;stroke:#000000;stroke-width:3.17708898;stroke-linecap:round;stroke-linejoin:round;marker:none;marker-start:none;marker-mid:none;marker-end:none;stroke-miterlimit:4;stroke-dasharray:none;stroke-dashoffset:0;stroke-opacity:1;visibility:visible;display:inline;overflow:visible;enable-background:accumulate" />
    <path
       style="fill:#00b9bb;fill-opacity:1;fill-rule:evenodd;stroke:#000000;stroke-width:2.80220747;stroke-linecap:round;stroke-linejoin:round;stroke-miterlimit:4;stroke-dasharray:none;stroke-opacity:1"
       d="M -164.22435,362.36558 C -157.21342,345.22123 -167.66106,324.79433 -168.69571,306.86591 C -170.02024,295.44452 -167.71749,276.91804 -162.20702,266.27249 C -155.67008,251.59373 -148.06457,237.2233 -139.99562,223.0314 C -159.63975,241.79021 -179.70617,260.48241 -195.80357,281.30391 C -202.79775,289.54939 -208.95671,309.99118 -211.79197,319.27176 C -216.14286,337.50511 -221.93072,343.06869 -232.31147,359.3806 C -236.9327,366.14611 -237.02035,374.99522 -229.76468,380.85704 C -220.37114,388.44607 -207.77334,391.66329 -192.71133,387.27396 C -181.96488,384.14226 -171.97011,381.30681 -164.22435,362.36558 z"
       id="path3786"
       sodipodi:nodetypes="cccccccsss" />
    <g
       transform="matrix(1.1818633,6.9640116e-2,-7.7288888e-2,1.0649021,59.679462,-13.166977)"
       id="g3788">
      <path
         style="opacity:1;fill:#00b9bb;fill-opacity:1;fill-rule:evenodd;stroke:#000000;stroke-width:3.0999999;stroke-linecap:round;stroke-linejoin:round;marker:none;marker-start:none;marker-mid:none;marker-end:none;stroke-miterlimit:4;stroke-dasharray:none;stroke-dashoffset:0;stroke-opacity:1;visibility:visible;display:inline;overflow:visible;enable-background:accumulate"
         d="M -193.89882,377.38769 L -192.52812,382.87051 C -192.52812,382.87051 -183.61853,390.40939 -176.765,384.92657 C -169.91148,379.44375 -164.42866,344.49077 -165.11401,334.21048 C -165.79936,323.93019 -165.79936,310.90849 -161.68725,309.53778 C -157.57513,308.16708 -171.28218,299.94285 -171.28218,299.94285 C -171.28218,299.94285 -189.10135,298.57214 -195.95488,301.99891 C -202.8084,305.42567 -202.12305,330.09836 -200.06699,333.52513 C -198.01094,336.95189 -193.21347,354.77106 -193.21347,359.56853 C -193.21347,364.36599 -193.21347,378.07305 -193.89882,377.38769 z"
         id="path3790" />
      <path
         style="opacity:1;fill:#00b9bb;fill-opacity:1;fill-rule:evenodd;stroke:#000000;stroke-width:3.0999999;stroke-linecap:round;stroke-linejoin:round;marker:none;marker-start:none;marker-mid:none;marker-end:none;stroke-miterlimit:4;stroke-dasharray:none;stroke-dashoffset:0;stroke-opacity:1;visibility:visible;display:inline;overflow:visible;enable-background:accumulate"
         d="M -194.58417,377.38769 C -194.58417,377.38769 -192.52812,367.79276 -195.26953,353.40035 C -198.01094,339.00795 -207.60587,310.90849 -197.32558,302.68426 C -187.04529,294.46003 -145.23878,317.76202 -145.23878,317.76202 C -145.23878,317.76202 -73.276756,376.01699 -67.793936,378.07305 C -62.311116,380.1291 -95.208036,337.63724 -102.74692,325.98625 C -110.2858,314.33525 -119.88074,296.51608 -122.62215,293.08932 C -125.36356,289.66256 -134.27314,283.49438 -145.23878,285.55044 C -156.20443,287.6065 -189.10135,298.57214 -194.58417,301.31355 C -200.06699,304.05496 -200.75235,307.48173 -202.12305,312.96455 C -203.49376,318.44737 -194.58417,351.34429 -194.58417,358.88317 C -194.58417,366.42205 -194.58417,377.38769 -194.58417,377.38769 z"
         id="path3792" />
    </g>
    <path
       sodipodi:nodetypes="cccccccsss"
       id="path3794"
       d="M -233.12496,375.66236 C -248.7953,359.60252 -250.92246,332.24891 -259.94777,311.79731 C -265.11188,298.47762 -277.4053,278.81781 -288.15377,269.35152 C -302.04064,255.83486 -316.69686,243.12928 -331.66197,230.82546 C -303.98059,243.1636 -275.96454,255.24284 -250.26091,271.4324 C -239.53697,277.57279 -222.78892,297.68339 -215.15089,306.79652 C -201.21769,325.234 -193.04151,328.91003 -174.86731,342.56816 C -167.05158,348.09497 -162.07038,357.92791 -165.2063,367.63865 C -169.26621,380.2107 -178.56843,389.3067 -194.25446,390.99474 C -205.44615,392.19912 -215.81224,393.4054 -233.12496,375.66236 z"
       style="fill:#00b9bb;fill-opacity:1;fill-rule:evenodd;stroke:#000000;stroke-width:3.0999999;stroke-linecap:round;stroke-linejoin:round;stroke-miterlimit:4;stroke-dasharray:none;stroke-opacity:1" />
    <g
       transform="matrix(1.0968801,0,0,0.9575826,-45.307999,204.49335)"
       id="g3796">
      <path
         style="opacity:1;fill:#00b9bb;fill-opacity:1;fill-rule:evenodd;stroke:#000000;stroke-width:3.0999999;stroke-linecap:round;stroke-linejoin:round;marker:none;marker-start:none;marker-mid:none;marker-end:none;stroke-miterlimit:4;stroke-dasharray:none;stroke-dashoffset:0;stroke-opacity:1;visibility:visible;display:inline;overflow:visible;enable-background:accumulate"
         d="M -146.21029,194.74633 C -146.21029,194.74633 -154.43452,196.11703 -163.34411,188.57815 C -172.25369,181.03927 -181.84863,162.53475 -183.90469,150.88376 C -185.96074,139.23276 -199.6678,115.93078 -199.6678,115.93078 L -194.87033,100.85302 L -172.25369,95.370197 C -172.25369,95.370197 -161.9734,97.426247 -160.6027,104.27978 C -159.23199,111.13331 -159.23199,156.36658 -157.17593,163.22011 C -155.11988,170.07363 -142.78353,185.83674 -143.46888,187.8928 C -144.15423,189.94886 -145.52494,194.74633 -146.21029,194.74633 z"
         id="path3798" />
      <path
         id="path3800"
         d="M -144.28804,186.47658 C -144.28804,186.47658 -157.30974,172.76953 -157.9951,145.35542 C -158.68045,117.94132 -158.68045,104.91962 -163.47792,100.12215 C -168.27539,95.324681 -183.35314,95.324681 -191.57737,104.91962 C -199.80161,114.51455 -234.06924,165.916 -238.18135,171.39882 C -242.29347,176.88164 -266.96616,213.20533 -267.65151,213.20533 C -268.33686,213.20533 -255.31516,187.16193 -253.25911,179.62305 C -251.20305,172.08417 -249.14699,133.01907 -243.66417,117.94132 C -238.18135,102.86356 -234.75459,91.212561 -227.90106,89.841861 C -221.04754,88.471151 -205.28443,85.729741 -193.63343,87.785801 C -181.98244,89.841861 -164.84862,96.010031 -162.10721,100.12215 C -159.3658,104.23426 -153.88298,156.32106 -153.88298,164.54529 C -153.88298,172.76953 -142.23199,187.16193 -144.28804,186.47658 z"
         style="opacity:1;fill:#00b9bb;fill-opacity:1;fill-rule:evenodd;stroke:#000000;stroke-width:3.0999999;stroke-linecap:round;stroke-linejoin:round;marker:none;marker-start:none;marker-mid:none;marker-end:none;stroke-miterlimit:4;stroke-dasharray:none;stroke-dashoffset:0;stroke-opacity:1;visibility:visible;display:inline;overflow:visible;enable-background:accumulate" />
    </g>
  </g>
  <rect
     style="opacity:1;fill:none;fill-opacity:1;fill-rule:evenodd;stroke:none;stroke-width:1.77420568;stroke-linecap:round;stroke-linejoin:round;marker:none;marker-start:none;marker-mid:none;marker-end:none;stroke-miterlimit:4;stroke-dasharray:none;stroke-dashoffset:0;stroke-opacity:1;visibility:visible;display:inline;overflow:visible;enable-background:accumulate"
     id="rect3922"
     width="379"
     height="213.83003"
     x="0.68535262"
     y="49.67812"
     ry="7.7195345e-08" />
</svg>
